<svg xmlns="http://www.w3.org/2000/svg" viewBox="0 0 500 260" role="img" aria-label="Abhi Scientific Instruments logo">
<rect width="500" height="260" fill="#fff"/>
<!-- ASI monogram -->
<path fill="#000" d="M35 185L115 35h79l-2 150h-54l1-73-39 73H35zm52-64h36l1-44-37 44z"/>
<path fill="#1598cf" d="M237 35h119l-12 43h-72l-7 28 63 43-8 36-51-35-8 35h-54l24-150zm42 36l-10 31 55 37 9-35-54-33z"/>
<path fill="#000" d="M380 43h71l-39 142h-56l27-101-20-24 17-17z"/>
<!-- DNA -->
<path d="M305 83c34 14 49 25 52 42 3 18-14 30-50 43-20 7-27 15-25 25 2 9 13 17 31 24" fill="none" stroke="#444" stroke-width="9" stroke-linecap="round"/>
<path d="M353 79c-34 14-49 25-52 42-3 18 14 30 50 43 20 7 27 15 25 25-2 9-13 17-31 24" fill="none" stroke="#168fc2" stroke-width="7" stroke-linecap="round"/>
<path d="M319 96l30 16M309 119l31 15M310 147l31-15M320 171l30-16" stroke="#777" stroke-width="5" stroke-linecap="round"/>
<!-- company name -->
<text x="35" y="226" font-family="Arial, Helvetica, sans-serif" font-size="23" font-weight="900" letter-spacing="-1.4" fill="#000">ABHI SCIENTIFIC</text>
<text x="257" y="226" font-family="Arial, Helvetica, sans-serif" font-size="23" font-weight="900" letter-spacing="-1.4" fill="#1598cf">INSTRUMENTS</text>
</svg>